<svg preserveAspectRatio="none" overflow="visible" style="display: block;" width="51.6553" height="61.1953" viewBox="0 0 51.6553 61.1953" fill="none" xmlns="http://www.w3.org/2000/svg">
<g id="Group 1">
<path id="Exclude" d="M14.6689 47.8848C15.0275 48.1123 15.086 48.5501 15.1094 48.9883L15.1309 49.4189L15.2715 50.1943C15.7178 52.7392 16.9016 59.8872 16.7061 60.2725L16.3691 60.2773C15.365 59.3557 16.0163 56.8014 15.1982 55.8789C14.651 55.6893 13.9989 55.8424 13.4131 55.9268C13.2941 57.6459 13.2889 59.6348 12.6279 61.1953C11.9359 57.6942 13.4453 51.6027 14.2812 48.0469H14.2822L14.6689 47.8848ZM3.59766 47.4219C4.35241 47.6781 4.86814 48.3591 5.08398 49.1074L4.91113 49.2373C4.26981 49.1322 4.2768 48.4889 3.49414 48.1709C1.61674 48.8167 2.18451 56.2425 2.32227 58.0078C2.37152 58.6388 2.55793 59.2515 3.11328 59.6172C3.54535 59.7361 3.62287 59.7727 4.0332 59.6104C4.5527 59.4573 4.69806 59.3422 5.09277 59.5547C4.88612 60.3143 3.58332 60.7611 3.01953 60.4434C1.44188 59.5371 1.31035 56.2952 1.36523 54.6426C1.43948 52.4049 1.05359 48.3923 3.59766 47.4219ZM38.5869 47.4346C39.0305 47.4244 39.6321 47.3818 39.9258 47.708C42.2233 50.2621 42.0745 57.9441 40.0508 60.3232C39.6574 60.3533 38.9867 60.448 38.6709 60.209C37.305 59.1755 37.1432 56.7924 37.0977 55.2246C37.0269 52.7967 37.0382 49.4579 38.5869 47.4346ZM32.2314 47.3623C33.3203 47.4833 34.1989 47.7321 34.9834 48.5977C35.5047 49.1715 35.7742 49.931 35.7314 50.7051C35.6537 52.2107 34.8043 53.0296 33.7676 53.9443C35.5568 54.8972 36.219 55.9716 35.4326 57.9297C34.5959 59.2013 33.7025 59.7038 32.3975 60.3379C32.0655 57 32.2729 50.9629 32.2314 47.3623ZM23.6309 47.6494C24.6099 47.6015 27.5333 47.4041 28.2412 47.9199L28.2666 48.1953C27.7553 48.2268 27.588 48.2164 27.1084 48.4414C26.504 49.1606 26.7186 51.1851 26.7207 52.1914L26.7471 58.9941C26.7983 59.6911 26.9094 59.8366 26.4131 60.332L26.1758 60.2744C25.799 59.5925 25.9335 49.79 25.9287 48.332C25.1071 48.3372 24.2662 48.5812 23.6426 48.1406L23.6309 47.6494ZM20.3076 47.6514C20.8903 47.6293 21.5363 47.5304 21.9707 47.9014L21.8662 48.1299C21.3003 48.4878 20.5771 48.3814 19.8916 48.3604C19.9157 49.8837 19.8389 51.6282 19.8076 53.167C20.5535 53.088 21.2805 52.8585 21.8203 53.4355L21.6592 53.6914C21.1464 54.027 20.4895 53.9394 19.8652 53.9248C19.9252 54.858 19.8906 56.132 19.8896 57.0918C19.915 57.8466 20.1182 59.7789 19.6533 60.2988C19.2214 60.2875 19.3718 60.3549 19.0859 60.0586C18.9525 58.3871 18.9949 49.5911 19.2363 48.1211C19.6549 47.6789 19.6034 47.8042 20.3076 47.6514ZM48.1777 47.6611C48.9644 47.6295 50.8043 47.4987 51.4727 47.7783L51.5732 48.0908C51.2511 48.3825 50.508 48.3627 50.0322 48.3984C49.8119 48.6761 50.0644 58.6981 50.0791 59.8389L50.0996 60.0811L49.8633 60.2861L49.4805 60.2207C48.9127 59.5904 49.1247 50.0536 49.1201 48.3867C48.5945 48.3797 47.2822 48.4274 47.0059 47.9766C47.3664 47.6994 47.7137 47.7134 48.1777 47.6611ZM7.05371 48.0596C7.62131 46.6983 12.1944 48.6735 8.09863 54.5957C9.05205 56.4545 9.92651 58.0025 10.5684 60.0244L10.4277 60.2803C10.2294 60.2719 9.93048 60.2921 9.84277 60.0869C9.17718 58.5292 8.30069 56.4494 7.5791 54.9697C7.50197 56.0123 7.57887 59.8649 7.11035 60.2646C6.5472 59.7283 7.03906 54.7769 7.03906 53.7686C6.72016 53.157 6.7457 48.8191 7.05371 48.0596ZM44.8223 47.6797C45.9724 48.2229 46.5199 56.5509 46.876 58.125C46.9843 58.6036 47.2063 59.6093 47.2402 60.0889L47.0068 60.2354C46.11 59.6866 46.2553 56.2875 45.5811 55.7393L45.2373 55.8643C45.1188 55.8499 44.5182 55.783 44.457 55.8037C43.0566 56.2766 43.9758 59.518 43.333 60.2285L42.9785 60.2461L42.7578 60.0391C42.7061 58.4397 44.1787 48.9536 44.8223 47.6797ZM38.9678 48.127C37.5078 50.3496 37.4873 56.394 38.5674 58.9688C38.7483 59.3997 39.1925 59.6522 39.6064 59.8525C40.481 58.914 40.6634 57.5903 40.6982 56.3457C40.7437 54.7149 41.0927 48.5996 38.9678 48.127ZM33.0508 54.2373C32.9752 56.0156 32.9935 57.8127 32.9941 59.5938C33.2269 59.3664 33.6842 58.9435 33.8818 58.7168C34.6072 57.8008 34.9539 57.3076 34.8252 56.1055C34.7314 55.2298 33.9011 54.3634 33.0508 54.2373ZM44.8887 50.7969C44.7345 51.6907 44.0577 54.4739 44.4863 55.1191L45.1875 55.3213C45.4796 55.0662 45.6257 55.0309 45.6016 54.5615C45.5566 53.6961 45.4482 51.395 44.8887 50.7969ZM14.4971 50.7988C14.2455 51.5847 13.5597 54.3448 13.5557 55.1045C13.876 55.2552 14.0805 55.2119 14.4336 55.1953C14.8182 55.1487 15.0381 55.1943 15.2734 54.9697C15.184 54.3501 14.7987 51.0879 14.4971 50.7988ZM7.44824 48.2344C7.34042 49.7904 7.31916 52.1035 7.60938 53.6436L7.86523 53.6016C8.94334 52.7088 9.07911 51.1359 9.24707 49.8145C8.67798 48.9741 8.44888 48.429 7.44824 48.2344ZM33.0215 48.0996C33.0088 49.5074 32.9153 52.0206 33.0684 53.3379L33.292 53.4697C33.653 53.1722 33.8582 53.0024 34.1807 52.6572C35.3901 50.953 35.1161 48.8635 33.0215 48.0996ZM41.6836 41.3311C44.6219 40.9621 46.4593 42.5561 48.9658 43.8047C49.8627 44.2514 50.755 44.7883 51.6016 45.3252C48.6084 44.5421 45.7596 42.9736 42.9932 42.334C41.1586 41.9098 37.7093 44.7127 35.5176 44.9551C32.2683 45.3145 30.5023 43.3934 27.4258 43.2559C24.6728 43.2927 22.0805 45.6642 18.9561 45.2744C16.3383 44.9478 14.4246 43.2706 12.1426 42.7207L12.0723 42.7041C10.6702 42.6957 7.87821 44.3866 6.45898 44.7051C5.71634 44.8714 3.17053 44.4795 2.46387 44.0449L2.52539 43.8779C3.31342 43.7225 5.00197 44.2698 5.91797 44.0723C7.66772 43.6947 10.5654 41.346 12.3584 41.7119C14.6457 42.1787 16.8074 44.2789 19.3652 44.4131C22.088 44.5559 24.192 42.4588 26.6416 42.1006C29.6831 41.656 32.2423 44.6532 35.5977 43.8789C37.9891 43.3268 39.2577 42.0717 41.6836 41.3311ZM41.9072 38.29C44.519 38.1495 47.3487 40.8944 49.8613 41.4287C50.3261 41.5276 50.7929 41.5604 51.1943 41.8174L51.0215 41.9492C48.3493 41.9736 47.7091 41.4807 45.3545 40.3184C40.6485 37.9954 38.6915 41.3877 34.1641 41.748C30.5632 42.0348 29.4978 39.8336 26.4883 39.9102C24.6219 39.9576 22.338 41.5403 20.834 42.2197C18.7295 43.1697 15.0342 40.8978 12.9785 39.9092C8.75721 38.7091 8.3832 43.3412 1.58203 40.6963C3.01973 40.6521 4.66892 41.0007 6.01074 40.6836C7.8557 40.2474 9.55125 38.7674 11.5088 38.6924C14.1317 38.5919 16.4976 40.8384 19.0508 40.9795C21.4838 41.1137 23.628 39.2164 26.0088 38.8838C28.6003 38.5219 31.2576 40.5645 33.7402 40.5293C36.7749 40.4859 38.7872 38.6743 41.9072 38.29ZM50.0625 39.2842C50.2973 39.3287 50.546 39.368 50.8105 39.4014C50.9432 39.4181 51.0798 39.4336 51.2207 39.4473L51.6553 39.4834C51.0574 39.4421 50.5317 39.3733 50.0615 39.2842H50.0625ZM18.9854 39.3232H18.9844H18.9854ZM3.51758 39.1992C3.4345 39.2026 3.35213 39.2039 3.27051 39.2031C3.35209 39.2039 3.43453 39.2026 3.51758 39.1992ZM33.3721 39.0947H33.3711H33.3721ZM2.27539 38.8447C2.26019 38.8606 2.24716 38.877 2.2373 38.8945C2.27764 38.9335 2.31781 38.9674 2.35742 38.9971C2.31777 38.9674 2.27768 38.9336 2.2373 38.8945C2.24718 38.877 2.26017 38.8606 2.27539 38.8447ZM5.89453 38.7178H5.89355H5.89453ZM2.47168 38.7227L2.39355 38.7588C2.46574 38.7203 2.55564 38.6886 2.65527 38.6611C2.58893 38.6795 2.52697 38.6997 2.47168 38.7227ZM46.1348 36.5674C46.7107 36.8939 47.6238 37.4624 47.9043 37.6377C48.2453 37.8508 48.5572 38.0354 48.8564 38.2021C48.5571 38.0354 48.2445 37.8509 47.9033 37.6377C47.6224 37.4621 46.7104 36.8947 46.1348 36.5684V36.5674ZM45.5605 37.4043C45.7155 37.4776 45.8656 37.5525 46.0127 37.6289C46.4541 37.8583 46.8693 38.0989 47.3154 38.3281C46.7203 38.0224 46.1797 37.6975 45.5596 37.4043H45.5605ZM3.70117 38.4854H3.7002H3.70117ZM5.20117 38.0713C4.95499 38.1631 4.707 38.2462 4.45703 38.3164C4.707 38.2462 4.95499 38.1631 5.20117 38.0713ZM24.9824 0C26.5053 1.5363 28.0171 3.09757 29.5186 4.67578C31.7705 7.04282 33.9985 9.44871 36.2041 11.8682C38.4098 14.2878 40.5932 16.7208 42.7549 19.1426C43.4817 19.9567 45.7295 22.1931 47.084 23.6562C47.5022 24.1079 47.834 24.4867 48.0107 24.7266L48.0518 24.7803L48.3789 25.084C49.1846 25.8489 50.2541 26.9603 50.9893 27.333C49.8047 28.9053 48.7353 30.5617 47.7891 32.2881C47.3985 32.9984 45.971 36.0562 45.707 36.3457C45.595 36.1832 45.6672 35.8303 45.6836 35.585L45.4121 35.3213C45.368 35.0527 45.4508 34.447 45.4014 34.2305C45.1387 33.0819 44.0919 28.3404 43.3086 27.9004L43.0859 28.0703C42.7176 28.8198 42.8658 29.1174 42.9531 29.9795C42.7807 30.6019 42.9855 31.3362 42.8633 31.624C42.6535 31.4698 42.6092 31.3016 42.502 31.0625C42.4693 31.2832 42.4475 31.4329 42.4355 31.6191L42.4268 31.8223C42.2496 30.8828 41.9229 29.1517 41.7344 28.1572C41.7328 28.1491 41.3813 27.8728 41.332 27.8418C41.1024 27.6976 41.0216 27.7785 40.7744 27.8545C40.1749 28.8684 41.3655 32.192 41.5713 33.6035C41.477 33.9349 41.4075 34.1727 41.2793 34.4922C41.05 34.3715 41.1446 34.4619 41.0381 34.167L40.9287 34.9336C40.7782 33.7172 40.1369 30.5386 38.7422 30.2852L38.5039 30.4775C38.2568 31.6764 38.8431 32.496 39.3945 33.5938L39.7666 34.8584C38.8283 35.2465 39.0974 34.832 38.6318 35.125C38.8112 36.6946 38.2059 36.73 36.9424 37.3945C37.0658 36.0122 36.7175 33.534 37.0176 32.7363L37.2891 32.6182C37.7176 32.7895 37.8207 33.0982 38.0566 33.5166C38.3079 33.6653 38.438 33.7527 38.668 33.9326L39.0098 33.7607C38.6108 32.4065 38.679 32.3692 37.585 31.5244C37.4725 31.0081 37.7012 30.5651 37.8662 30.0039L37.7539 30.3369C37.1013 30.3735 36.6431 31.7035 35.5215 32.2178C36.1172 31.2145 38.2649 29.3536 38.3633 28.1729L38.1826 27.9688C36.3355 27.823 36.109 29.2093 34.7139 29.666C34.36 29.419 34.6199 28.9884 34.3545 28.2051C33.9107 27.8812 34.1237 27.9615 33.4824 27.9736C32.9372 28.2048 32.6498 28.7463 32.3145 29.2432L31.71 29.999L31.0791 30.5889C32.5609 31.8521 34.0441 33.1136 35.5 34.3994C36.5365 35.3151 36.7765 36.0058 35.7617 37.0791C35.1645 37.711 34.1972 38.3297 33.3789 37.8291C33.3534 37.3844 34.1264 36.3367 34.4277 35.8652C31.1707 31.3266 27.4842 32.434 30.3428 36.8311C29.3759 36.4597 27.8906 35.8366 26.9238 35.6475C27.7301 34.5138 28.5723 33.284 29.4316 32.2002L29.1836 32.123C29.3545 31.6386 30.3246 31.0139 30.7812 30.3535L30.6094 30.2207C29.9279 30.5238 28.8317 31.8299 28.2529 32.4189L27.9912 32.3691H27.9902C27.3044 33.188 26.4534 34.8051 25.9209 35.7949C24.9246 36.1659 24.2679 36.4073 23.21 36.5889C23.4903 36.1931 23.7843 35.7868 24.0869 35.377C24.6925 34.5568 25.3316 33.7205 25.957 32.915C26.2696 32.5124 26.5788 32.1175 26.8789 31.7363C26.5828 31.3014 26.6296 31.24 26.3301 31.1211C26.2873 31.1041 26.2376 31.086 26.1787 31.0654C25.0494 32.5081 23.926 33.9219 22.8701 35.4209C22.3179 36.2053 22.2001 36.8627 21.6484 37.5342L21.209 37.54L20.499 37.4766C19.9868 37.0071 20.2276 36.6183 20.5811 36.0859C22.0505 33.8728 23.735 31.612 25.4238 29.5742L25.1084 29.0156L24.8643 29.0889L24.1631 29.8037C23.6649 29.9939 23.6571 29.8987 23.4424 30.292C22.3772 29.4688 20.8097 27.5902 19.3154 27.6973L19.1982 27.8672C19.172 28.6056 19.6804 29.141 20.1455 29.6406C19.8748 30.1026 19.8577 30.1633 19.7871 30.6953C19.4785 31.3779 19.1371 32.0894 18.8945 32.7949L18.9951 32.9854C20.1994 32.7435 21.2959 31.5655 22.1143 31.916C22.18 32.9001 20.1644 34.9309 19.3105 35.3779C19.1155 35.3858 18.9098 35.4097 18.7236 35.374C18.1729 35.3332 17.7403 35.2426 17.2588 35.498L17.2051 35.5254C17.2375 35.5741 17.2733 35.6246 17.3115 35.6758C17.4261 35.829 17.5652 35.9913 17.7139 36.1572C17.9123 36.3786 18.1288 36.6054 18.332 36.8213C18.5351 37.037 18.7241 37.2425 18.8682 37.4209C19.0122 37.5993 19.1107 37.7511 19.1318 37.8604L19.0586 38.0693C15.8245 37.4088 16.7572 36.5399 15.0625 34.8408L15.001 34.8779C14.9383 34.8364 14.8954 34.807 14.8643 34.7812C14.7709 34.704 14.7817 34.6599 14.668 34.4258C14.3418 34.5187 14.1743 34.5614 13.8389 34.6064C13.816 34.4914 13.8039 34.413 13.7949 34.3555C13.768 34.1826 13.7637 34.1995 13.541 33.9795V33.9785C13.8634 33.502 14.2196 32.8285 14.5098 32.3154C14.999 31.4024 16.7131 28.5682 15.7012 27.7998C14.1938 27.7957 14.0148 30.2631 13.3379 31.4609C12.7629 32.4782 10.4902 35.0256 10.4316 35.8779C10.1209 36.0615 9.89656 36.2641 9.57227 36.248L9.42676 36.2275L9.14258 35.9707C8.41314 35.3325 7.25284 34.4446 6.52832 33.8066C4.19755 31.7682 2.01601 29.5651 0 27.2148C1.3876 27.2186 7.53455 27.3687 8.46289 26.707C9.20982 25.6904 13.9174 20.4816 14.8135 19.5361C16.4006 17.8614 20.2771 13.1622 22.6631 10.7422C23.0301 10.37 23.3618 10.0517 23.6445 9.80664C23.7859 9.68408 23.9151 9.57961 24.0303 9.49609L24.2686 11.4326C24.0131 11.9952 24.0869 23.6917 24.1367 25.1592C24.1672 25.8506 24.1101 26.198 24.5186 26.7158L24.7568 26.6045C25.1567 26.0049 25.1169 25.2733 25.1543 24.5449C25.0656 23.5316 25.1603 22.1392 25.1182 21.0859C24.9775 17.5686 25.2397 13.2252 24.8877 9.81152C24.9122 6.59138 24.991 3.19882 24.9824 0ZM39.7041 37.21C40.0431 37.0588 40.378 36.923 40.707 36.8125C40.378 36.923 40.0431 37.0588 39.7041 37.21ZM22.5684 37.418H22.5674H22.5684ZM30.665 33.7979C31.6458 34.1254 32.7088 34.7444 32.9883 35.7871C32.9874 36.3262 32.6968 36.5743 32.3447 36.9922C32.1543 37.2599 32.1133 37.2652 31.8174 37.4277L31.5254 37.3213C31.1833 36.5574 30.424 34.5813 30.665 33.7979ZM26.3896 37.04C26.4757 37.0429 26.5612 37.048 26.6465 37.0547L26.3887 37.04H26.3896ZM26.0078 37.0518L25.8135 37.0752C25.9433 37.056 26.0719 37.0441 26.1992 37.04L26.0078 37.0518ZM43.6611 36.7412V36.7422V36.7412ZM13.8145 34.7959C14.2176 35.1252 14.878 36.0731 15.0527 36.5596L14.8232 36.6777C14.3101 36.4359 13.6567 36.3231 13.3291 35.9004C13.3503 35.3064 13.4346 35.3729 13.8145 34.7959ZM11.291 35.79H11.29H11.291ZM17.0752 35.3291V35.3281V35.3291ZM2.12988 28.1211C3.0047 29.1643 8.95324 35.1795 9.85156 35.0801C9.90109 34.8631 10.1076 34.2426 9.94043 34.126C7.51953 32.4466 6.01236 30.7311 4.2666 28.3018C3.66418 28.2352 2.70776 28.0999 2.12988 28.1211ZM13.2588 28.1426C12.9127 27.8949 12.2885 27.9633 11.8252 27.9883C11.2241 28.8436 11.1277 30.5054 10.2998 30.8945C6.99559 31.1269 9.12667 27.2185 6.38867 28.4209C5.80896 29.1253 6.57287 29.9479 7.06055 30.585C8.07226 31.6066 9.36154 32.598 10.6943 33.1543C11.5556 32.1779 13.4502 29.4419 13.2588 28.1426ZM18.1846 27.9541C17.106 27.3899 16.9964 29.3139 16.9746 29.9355L16.6709 30.208L16.7686 30.3809L17.7041 30.4541L17.7568 30.5947C17.1858 31.2516 16.3404 32.1049 17.0088 33.0205C17.0124 32.8988 17.0195 32.7834 17.0303 32.6738C17.0518 32.4552 17.088 32.2598 17.1367 32.083C17.1855 31.906 17.2469 31.7476 17.3213 31.6035C17.4329 31.3871 17.5727 31.2029 17.7373 31.0352C17.9018 30.8675 18.091 30.7161 18.3027 30.5664C18.6553 30.3171 19.0698 30.0721 19.5322 29.7598L19.3389 29.6338C19.0325 29.7105 19.0236 29.7103 18.707 29.71L18.4258 29.2939C18.4246 28.8071 18.487 28.324 18.1846 27.9541ZM48.3877 28.8418C48.0042 27.6999 46.3043 27.9885 45.2461 27.9883C45.2866 29.227 45.5347 30.5681 46.9521 30.8027C47.3256 30.6601 47.3603 30.6172 47.6162 30.3076C47.9543 29.8363 48.3324 29.4107 48.3877 28.8418ZM10.6348 28.3623C10.2395 27.9602 9.88012 28.0792 9.30859 28.1289C8.51254 29.1012 8.60904 30.262 10.0244 30.043C10.2665 29.5484 10.6766 28.8719 10.6348 28.3623ZM20.5244 29.9717C20.3934 29.8554 20.2674 29.7426 20.1465 29.6416L20.1455 29.6406H20.1465C20.2674 29.7417 20.3933 29.8554 20.5244 29.9717ZM22.7715 28.4736C22.7949 28.5604 22.8337 28.6466 22.8838 28.7314C22.8337 28.6467 22.7949 28.5604 22.7715 28.4736ZM25.6602 1.62598C25.9464 4.10484 25.8043 10.2824 25.8086 13.0381C26.1355 16.8737 25.9508 22.928 25.9443 26.8721C30.6524 26.9204 35.3612 26.9317 40.0693 26.9053C42.6008 26.9013 46.2488 26.9909 48.7158 26.7861C48.2156 26.2408 47.0396 25.017 46.6553 24.4717L46.5596 24.3955C45.9932 23.9086 44.1531 21.8973 43.7637 21.4746L35.9111 12.7871C32.8284 9.3999 28.4334 5.10246 25.6602 1.62598ZM23.6406 10.4736C20.6819 14.0863 17.3831 17.623 14.3379 21.2012C13.502 22.1833 10.5601 25.5442 9.45508 26.5498L9.25977 26.7188L9.35742 26.75C10.6939 27.0567 21.8257 26.7575 23.3311 26.7314C23.3849 24.1548 23.2703 20.8483 23.4609 18.4062C23.435 16.2953 23.3633 12.4798 23.6406 10.4736ZM24.7637 10.9072H24.7627H24.7637Z" fill="#123942"/>
</g>
</svg>
